<?xml version="1.0" encoding="UTF-8"?>
<svg id="Layer_1" xmlns="http://www.w3.org/2000/svg" version="1.1" viewBox="0 0 128 128">
  <!-- Generator: Adobe Illustrator 30.3.0, SVG Export Plug-In . SVG Version: 2.1.3 Build 182)  -->
  <defs>
    <style>
      .st0, .st1 {
        fill: #f2f0f0;
      }

      .st1 {
        fill-rule: evenodd;
      }
    </style>
  </defs>
  <g>
    <path class="st1" d="M64,1.51c-23.49,0-42.54,19.05-42.54,42.54,0,18.8,12.19,34.75,29.1,40.37,2.13.39,2.91-.92,2.91-2.05,0-1.01-.04-4.37-.06-7.92-11.84,2.57-14.33-5.02-14.33-5.02-1.94-4.92-4.72-6.23-4.72-6.23-3.86-2.64.29-2.59.29-2.59,4.27.3,6.52,4.39,6.52,4.39,3.79,6.5,9.95,4.62,12.38,3.54.38-2.75,1.49-4.63,2.7-5.69-9.45-1.08-19.38-4.72-19.38-21.03,0-4.65,1.66-8.44,4.38-11.42-.44-1.07-1.9-5.4.41-11.26,0,0,3.57-1.14,11.7,4.36,3.4-.94,7.03-1.42,10.65-1.43,3.62.02,7.26.49,10.66,1.43,8.12-5.5,11.69-4.36,11.69-4.36,2.32,5.86.86,10.19.42,11.26,2.73,2.98,4.38,6.77,4.38,11.42,0,16.34-9.95,19.94-19.43,20.99,1.53,1.32,2.89,3.91,2.89,7.88,0,5.69-.05,10.27-.05,11.67,0,1.13.77,2.46,2.92,2.04,16.9-5.63,29.07-21.57,29.07-40.37,0-23.49-19.05-42.54-42.54-42.54Z"/>
    <path class="st0" d="M37.57,62.6c-.1.21-.43.28-.73.13-.31-.14-.48-.43-.38-.64.09-.22.42-.28.73-.13.31.14.49.43.38.64h0ZM39.29,64.52c-.2.19-.6.1-.87-.2-.28-.3-.33-.69-.12-.88.21-.19.59-.1.87.2.28.3.33.69.12.88h0ZM40.97,66.97c-.26.18-.69.01-.95-.37-.26-.38-.26-.83,0-1.01.26-.18.68-.02.95.36.26.39.26.84,0,1.02h0ZM43.27,69.34c-.23.26-.73.19-1.09-.16-.37-.34-.47-.83-.24-1.09.24-.26.74-.18,1.1.16.37.34.48.83.23,1.09h0ZM46.44,70.71c-.1.33-.58.49-1.06.34-.48-.15-.8-.54-.7-.87.1-.34.58-.49,1.07-.34.48.14.79.53.7.87h0ZM49.92,70.96c.01.35-.4.64-.9.65-.51.01-.92-.27-.93-.62,0-.35.4-.64.91-.65.51-.01.92.27.92.62ZM53.16,70.41c.06.34-.29.69-.79.79-.49.09-.95-.12-1.01-.46-.06-.35.3-.7.79-.79.5-.09.95.12,1.02.47h0Z"/>
  </g>
  <path class="st0" d="M24.85,108.3h-10.7c-.28,0-.5.22-.5.5v5.23c0,.28.22.5.5.5h4.17v6.5s-.94.32-3.53.32c-3.06,0-7.33-1.12-7.33-10.51s4.45-10.63,8.62-10.63c3.61,0,5.17.64,6.16.94.31.09.6-.22.6-.49l1.19-5.06c0-.15-.07-.3-.19-.39-.4-.29-2.86-1.66-9.06-1.66-7.14,0-14.47,3.04-14.47,17.65s8.39,16.79,15.46,16.79c5.85,0,9.4-2.5,9.4-2.5.15-.08.16-.29.16-.38v-16.32c0-.28-.22-.5-.5-.5h0ZM79.51,94.81h-6.03c-.28,0-.5.23-.5.5,0,0,0,0,0,0v11.64s-9.39,0-9.39,0v-11.64c0-.28-.22-.5-.5-.5h-6.03c-.28,0-.5.23-.5.5,0,0,0,0,0,0v31.53c0,.28.22.5.5.5h6.03c.28,0,.5-.23.5-.5,0,0,0,0,0,0v-13.49h9.39l-.02,13.49c0,.28.22.5.5.5h6.04c.28,0,.5-.23.5-.5,0,0,0,0,0,0v-31.53c0-.27-.22-.5-.49-.5,0,0,0,0,0,0ZM32.34,95.53c-2.14,0-3.88,1.75-3.88,3.92s1.74,3.93,3.88,3.93,3.88-1.76,3.88-3.93-1.74-3.92-3.88-3.92ZM35.3,105.14h-6.01c-.28,0-.52.28-.52.56v20.85c0,.61.38.79.88.79h5.41c.6,0,.74-.29.74-.81v-20.9c0-.28-.22-.5-.5-.5h0ZM102.9,105.18h-5.98c-.28,0-.5.23-.5.5h0v15.46s-1.52,1.11-3.68,1.11-2.73-.98-2.73-3.09v-13.48c0-.28-.22-.5-.5-.5,0,0,0,0,0,0h-6.07c-.28,0-.5.23-.5.5v14.5c0,6.27,3.5,7.8,8.3,7.8,3.94,0,7.12-2.18,7.12-2.18,0,0,.15,1.15.22,1.29.07.14.25.27.44.27l3.86-.02c.28,0,.5-.23.5-.5h0s0-21.17,0-21.17c0-.28-.22-.5-.5-.5h0ZM119.24,104.47c-3.4,0-5.71,1.51-5.71,1.51v-10.68c0-.28-.22-.5-.5-.5h-6.04c-.28,0-.5.22-.5.5,0,0,0,0,0,0v31.53c0,.28.22.5.5.5,0,0,0,0,0,0h4.19c.19,0,.33-.1.44-.27.1-.17.25-1.45.25-1.45,0,0,2.47,2.34,7.15,2.34,5.49,0,8.64-2.78,8.64-12.5s-5.03-10.99-8.43-10.99h0ZM116.88,122.24c-2.07-.06-3.48-1-3.48-1v-9.99s1.39-.85,3.09-1c2.15-.19,4.23.46,4.23,5.59,0,5.42-.93,6.49-3.84,6.4h0ZM53.2,122.12c-.26,0-.94.11-1.63.11-2.22,0-2.97-1.03-2.97-2.37v-8.87h4.52c.28,0,.5-.22.5-.5,0,0,0,0,0,0v-4.86c0-.28-.22-.5-.5-.5,0,0,0,0,0,0h-4.52v-5.97c0-.23-.12-.34-.38-.34h-6.16c-.24,0-.37.11-.37.33v6.17s-3.09.75-3.3.81c-.21.06-.36.26-.36.48v3.88c0,.28.22.5.5.5h3.16v9.33c0,6.93,4.86,7.61,8.14,7.61,1.5,0,3.29-.48,3.59-.59.18-.07.28-.25.28-.45v-4.26c0-.27-.22-.5-.5-.5h0Z"/>
</svg>